<svg id="Icons" xmlns="http://www.w3.org/2000/svg" xmlns:xlink="http://www.w3.org/1999/xlink" viewBox="0 0 48 48"><defs><style>.cls-1{fill:none;}.cls-2{fill:#fff;}.cls-3{fill:#389fdf;}.cls-4{clip-path:url(#clip-path);}.cls-5{fill:#069edd;opacity:0.2;mix-blend-mode:multiply;}</style><clipPath id="clip-path"><path class="cls-1" d="M10,0H83a45,45,0,0,1,45,45v73a10,10,0,0,1-10,10H45A45,45,0,0,1,0,83V10A10,10,0,0,1,10,0Z"/></clipPath><symbol id="SpeachBubble" data-name="SpeachBubble" viewBox="0 0 44.67 27.59"><ellipse class="cls-2" cx="24.46" cy="11.32" rx="20.21" ry="11.32"/><polygon class="cls-2" points="13.35 13.5 0 27.59 19.82 19.54 13.35 13.5"/></symbol><symbol id="Artwork" data-name="Artwork" viewBox="0 0 121.44 118.68"><use id="SpeachBubble-3" data-name="SpeachBubble" width="44.67" height="27.59" transform="matrix(-1.3, 0, 0, 1.3, 121.44, 82.71)" xlink:href="#SpeachBubble"/><g id="Interperator"><path class="cls-2" d="M57.93,59.54h4.85A12.49,12.49,0,0,1,75.26,72v0a0,0,0,0,1,0,0H45.44a0,0,0,0,1,0,0v0A12.49,12.49,0,0,1,57.93,59.54Z"/><circle class="cls-2" cx="60.35" cy="50.41" r="10.62"/></g><use id="SpeachBubble-6" data-name="SpeachBubble" width="44.67" height="27.59" transform="scale(1.29)" xlink:href="#SpeachBubble"/></symbol><symbol id="Icon" data-name="Icon" viewBox="0 0 128 128"><path class="cls-3" d="M10,0H83a45,45,0,0,1,45,45v73a10,10,0,0,1-10,10H45A45,45,0,0,1,0,83V10A10,10,0,0,1,10,0Z"/><g class="cls-4"><g id="Shadows"><path class="cls-5" d="M3.28,40.34,92.33,128H118a10,10,0,0,0,10-10V82.17L55.83,10.5Z"/><path class="cls-5" d="M117.87,127.9l-18.11-.17-51-51L63.63,64.2l6-18.08,58.31,55.69,0,16.06A10,10,0,0,1,117.87,127.9Z"/><path class="cls-5" d="M118,128l-29.55-.05L68.88,108.38l47.13-13,12,12V118A10,10,0,0,1,118,128Z"/></g></g><use id="Artwork-3" data-name="Artwork" width="121.44" height="118.68" transform="translate(3.28 4.66)" xlink:href="#Artwork"/></symbol></defs><title>icon-android-</title><use id="Icon-3" data-name="Icon" width="128" height="128" transform="scale(0.38)" xlink:href="#Icon"/></svg>